<?xml version="1.0" encoding="utf-8"?>
<!-- Generator: Adobe Illustrator 19.1.0, SVG Export Plug-In . SVG Version: 6.00 Build 0)  -->
<svg version="1.1" id="BACKGROUND" xmlns="http://www.w3.org/2000/svg" xmlns:xlink="http://www.w3.org/1999/xlink" x="0px" y="0px"
	 viewBox="0 0 750 500" style="enable-background:new 0 0 750 500;" xml:space="preserve">
<style type="text/css">
	.st0{display:none;fill:#140635;}
	.st1{clip-path:url(#SVGID_2_);}
	.st2{fill:#FF00F9;}
	.st3{fill:#E15BEF;}
	.st4{fill:url(#SVGID_3_);}
	.st5{fill:url(#SVGID_4_);}
	.st6{fill:url(#SVGID_5_);}
	.st7{fill:url(#SVGID_6_);}
	.st8{fill:url(#SVGID_7_);}
	.st9{fill:url(#SVGID_8_);}
	.st10{fill:url(#SVGID_9_);}
	.st11{fill:url(#SVGID_10_);}
	.st12{clip-path:url(#SVGID_12_);}
	.st13{opacity:0.3;}
	.st14{fill:#FFFFFF;}
	.st15{opacity:0.1;fill:#FFFFFF;}
	.st16{display:none;}
	.st17{display:inline;}
	.st18{fill:#E9F9FF;}
	.st19{font-family:'NexaBold';}
	.st20{font-size:31px;}
	.st21{font-family:'NexaLight';}
	.st22{font-size:12px;}
	.st23{letter-spacing:2;}
</style>
<g>
	<rect class="st0" width="750" height="500"/>
	<g>
		<defs>
			<rect id="SVGID_1_" width="750" height="500"/>
		</defs>
		<clipPath id="SVGID_2_">
			<use xlink:href="#SVGID_1_"  style="overflow:visible;"/>
		</clipPath>
		<g class="st1">
			<path class="st2" d="M-22.7,444c89.1,15.9,136.1-19,151.3-36.1c15.2-17.1,66.1-96.3,137.2-105c61.1-7.4,104.6,9,180.5-15.5
				c75.9-24.5,71.5-91.6,138-141.4s173.5-32.1,173.5-32.1L546.2,363.5l-437.4,139c0,0-130,28.6-129.4,23.8
				C-20.1,521.5-22.7,444-22.7,444z"/>
			<path class="st3" d="M-28.9,471.8c53,41.8,103.6-20.1,118.4-9.4c14.9,10.7-35.2,66.5-35.2,66.5S13.1,550.8,0,536.7
				c-13-14.1-33.4-34.7-33.9-42.5C-34.4,486.4-28.9,471.8-28.9,471.8z"/>
			<path class="st3" d="M711.7,202.8c-77.9-24.3-136.6,9.8-153,74.3C568.1,273.7,711.7,202.8,711.7,202.8z"/>
			<path class="st3" d="M379.3,323.9c-77.9-24.3-136.6,9.8-153,74.3C235.7,394.7,379.3,323.9,379.3,323.9z"/>
			<linearGradient id="SVGID_3_" gradientUnits="userSpaceOnUse" x1="289.3376" y1="421.9127" x2="715.4677" y2="311.5651">
				<stop  offset="0" style="stop-color:#FC7A4B"/>
				<stop  offset="0.4899" style="stop-color:#CF0054"/>
				<stop  offset="1" style="stop-color:#790054"/>
			</linearGradient>
			<path class="st4" d="M754.7,94.8v415.1H6.6c75-17.4,78.9-77.7,124.4-108.6c40.8-27.7,93.8-2.3,157.1-47.1h0
				c7.3-5.2,14.8-11.3,22.4-18.5c93.8-89.5,213.3-40.1,278.8-77c8.7-4.9,16.7-11.4,24.2-18.9c0.2-0.2,0.4-0.4,0.6-0.6
				C662.5,189.7,689.6,95.8,754.7,94.8z"/>
			<linearGradient id="SVGID_4_" gradientUnits="userSpaceOnUse" x1="97.9073" y1="561.9749" x2="716.5591" y2="202.7575">
				<stop  offset="0" style="stop-color:#FC7A4B"/>
				<stop  offset="0.4899" style="stop-color:#CF0054"/>
				<stop  offset="1" style="stop-color:#790054"/>
			</linearGradient>
			<path class="st5" d="M754.7,94.8v222.4c-40.6,35.3-101.6,63.6-172.2,64C476,381.9,356.6,438,340,509.9H6.6
				c75-17.4,78.9-77.7,124.4-108.6c40.8-27.7,93.8-2.3,157.1-47.1h0c7.3-5.2,14.8-11.3,22.4-18.5c93.8-89.5,213.3-40.1,278.8-77
				c8.7-4.9,16.7-11.4,24.2-18.9c0.2-0.2,0.4-0.4,0.6-0.6C662.5,189.7,689.6,95.8,754.7,94.8z"/>
			<linearGradient id="SVGID_5_" gradientUnits="userSpaceOnUse" x1="141.184" y1="472.9022" x2="624.0534" y2="214.6417">
				<stop  offset="0" style="stop-color:#FC7A4B"/>
				<stop  offset="0.4899" style="stop-color:#CF0054"/>
				<stop  offset="1" style="stop-color:#790054"/>
			</linearGradient>
			<path class="st6" d="M613.5,239.7C545,311.4,459.8,406.6,339.1,427.4c-75.6,13-115.1,53.8-134.1,82.5H6.6
				c75-17.4,78.9-77.7,124.4-108.6c40.8-27.7,93.8-2.3,157.1-47.1h0c7.3-5.2,14.8-11.3,22.4-18.5c50-47.7,107.3-55.9,159.8-58.8
				c0,0,0,0,0,0c20.9-1.1,40.9-1.5,59.5-3c22.5-1.9,42.7-5.7,59.5-15.1C598.1,253.7,606,247.3,613.5,239.7z"/>
			<linearGradient id="SVGID_6_" gradientUnits="userSpaceOnUse" x1="35.4774" y1="509.8413" x2="307.8253" y2="361.1458">
				<stop  offset="0" style="stop-color:#FC7A4B"/>
				<stop  offset="0.4899" style="stop-color:#CF0054"/>
				<stop  offset="1" style="stop-color:#790054"/>
			</linearGradient>
			<path class="st7" d="M288.1,354.2c-42.6,35.5-64,125.3-154,155.8H6.6c75-17.4,78.9-77.7,124.4-108.6
				c20.8-14.1,44.7-14.4,71.5-17.3c14.3-1.5,29.4-3.7,45.4-9.1c0,0,0.1,0,0.1,0C260.9,370.4,274.2,364,288.1,354.2z"/>
			<linearGradient id="SVGID_7_" gradientUnits="userSpaceOnUse" x1="21.4032" y1="444.0383" x2="247.8333" y2="444.0383">
				<stop  offset="0" style="stop-color:#FFFFC2"/>
				<stop  offset="1" style="stop-color:#142C6F"/>
			</linearGradient>
			<path class="st8" d="M247.8,374.9c-67.2,23.8-50.3,105.4-159.5,135.1c-3.2,0.9-6.4,1.7-9.8,2.4c-16.4,2-57.1,0-57.1,0
				c3.8-0.6,7.5-1.4,11-2.4c60.7-17.6,93.6-98.2,170-125.9C216.8,382.5,231.9,380.3,247.8,374.9z"/>
			<linearGradient id="SVGID_8_" gradientUnits="userSpaceOnUse" x1="142.7031" y1="398.205" x2="529.8633" y2="398.205">
				<stop  offset="0" style="stop-color:#FFFFC2"/>
				<stop  offset="1" style="stop-color:#142C6F"/>
			</linearGradient>
			<path class="st9" d="M529.9,273.8c-98.3,11-82.5,84.6-180,118.5c-84,29.2-139.8,86.6-157.6,117.7c-2.9,5-4.8,9.3-5.7,12.7
				l-43.8-2.6c5-1.6,11-5.1,17.9-10.1c44.8-32.7,115.2-129.6,173.6-171.7c43.4-31.3,80.7-52.1,136.1-61.4c0,0,0,0,0,0
				C491.2,275.6,511.3,275.3,529.9,273.8z"/>
			<linearGradient id="SVGID_9_" gradientUnits="userSpaceOnUse" x1="293.9877" y1="532.843" x2="842.2036" y2="67.9746">
				<stop  offset="0" style="stop-color:#FFFFC2"/>
				<stop  offset="1" style="stop-color:#142C6F"/>
			</linearGradient>
			<path class="st10" d="M249.5,522.7c0.8-38,49.6-67.3,74.7-74.1c25-6.8,45.5-15.9,80.2-29.5c34.7-13.6,215.7-93.7,256.4-181.8
				c40.7-88.2,17.4-59.7,59-131.9c2.7-1.6,49.5-40.8,49.5-40.8v86.6c-53.7,8.3-46.4,96.5-130.4,161.6
				c-56.6,43.9-173.2,78.1-235.6,112C341,458.7,287,479.1,299,517.4L249.5,522.7z"/>
			<linearGradient id="SVGID_10_" gradientUnits="userSpaceOnUse" x1="389.7407" y1="552.6301" x2="853.0441" y2="305.326">
				<stop  offset="0" style="stop-color:#FFFFC2"/>
				<stop  offset="1" style="stop-color:#142C6F"/>
			</linearGradient>
			<path class="st11" d="M402.5,522.7c21.1-167.2,313-53,363.7-165.4C750,552.3,503.5,417.3,402.5,522.7z"/>
			<g>
				<defs>
					<path id="SVGID_11_" d="M754.7,94.8v415.1H6.6c75-17.4,78.9-77.7,124.4-108.6c40.8-27.7,93.8-2.3,157.1-47.1h0
						c7.3-5.2,14.8-11.3,22.4-18.5c93.8-89.5,213.3-40.1,278.8-77c8.7-4.9,16.7-11.4,24.2-18.9c0.2-0.2,0.4-0.4,0.6-0.6
						C662.5,189.7,689.6,95.8,754.7,94.8z"/>
				</defs>
				<clipPath id="SVGID_12_">
					<use xlink:href="#SVGID_11_"  style="overflow:visible;"/>
				</clipPath>
				<g class="st12">
					<g class="st13">
						<path class="st14" d="M358.5,517.5c-0.7-12.4,6.9-27.8,21.5-43.5c36.1-38.9,113.9-78.8,206.2-80.1
							c75.2-1.1,150.2-31.4,182.3-73.7l1.6,1.2c-16.7,22-43.9,40.7-78.7,54.2c-32.4,12.6-69.7,19.8-105.2,20.3
							c-91.7,1.4-168.9,40.9-204.8,79.5c-14.2,15.3-21.7,30.2-21,42.1L358.5,517.5z"/>
					</g>
					<g class="st13">
						<path class="st14" d="M311.8,522.8c-6.7-41.3,63.1-84.2,122.9-113C449,403,472.6,394,500,383.5c56.3-21.5,126.4-48.3,155-71.6
							c20.4-16.7,41.1-48.5,59.3-76.6c19.9-30.6,37-57.1,49.5-57.3l0,2c-11.4,0.2-29.1,27.5-47.8,56.4c-18.3,28.2-39,60.2-59.7,77.1
							c-28.8,23.5-99.1,50.4-155.5,71.9c-27.3,10.4-50.9,19.5-65.1,26.3c-59.2,28.4-128.3,70.7-121.8,110.8L311.8,522.8z"/>
					</g>
					<g class="st13">
						<path class="st14" d="M231.7,522.7c-1.5-25.7,15.6-48.7,51-68.5c36.5-20.3,79.7-29.7,92.1-32.1c24-4.6,83.9-28.1,142.9-71.5
							c49.1-36.1,111.4-96.5,129.6-179.4l2,0.4c-18.3,83.5-81,144.3-130.3,180.6c-59.2,43.5-119.6,67.2-143.7,71.8
							c-54.1,10.4-144.8,42.9-141.5,98.5L231.7,522.7z"/>
					</g>
					<g class="st13">
						<path class="st14" d="M173.3,530.4l-1.9-0.7c14.8-36.7,40.6-69.7,72.7-92.9c21.2-15.3,45.2-26.7,68.5-37.6
							c23.7-11.2,48.2-22.8,69.6-38.5c13.6-10,26.2-21.9,38.3-33.4c6.6-6.2,13.3-12.6,20.2-18.7c15.5-13.6,39.3-32.5,67.7-39
							l0.4,1.9c-28,6.4-51.6,25.1-66.9,38.5c-6.9,6-13.6,12.4-20.2,18.6c-12.2,11.5-24.8,23.4-38.5,33.5
							c-21.5,15.8-46.1,27.5-69.9,38.7c-23.2,10.9-47.1,22.3-68.2,37.5C213.5,461.4,187.9,494,173.3,530.4z"/>
					</g>
					<g class="st13">
						<path class="st14" d="M55.3,523.7c-2,0-4,0-6.1-0.1l0.1-2c91,2.7,128.9-54.9,159.4-101.2c17.6-26.6,32.7-49.7,54.3-56.6
							l0.6,1.9c-20.9,6.7-35.9,29.5-53.3,55.8C180.2,467.2,143,523.7,55.3,523.7z"/>
					</g>
				</g>
			</g>
			<g>
				<path class="st15" d="M323.5,500c12.7-69.7,100.9-123.2,233.2-148.8c132.3-25.5,36.8-222,119.8-260.3
					c23.9-11,45.6-12.2,64.4-8.3c55.1,11.4,89,67,75.7,121.7c-13.4,55.5-63.6,129.7-226.2,170c-281.5,69.7-122.1,140.7-47.7,135.7
					L323.5,500z"/>
				<path class="st15" d="M209.5,519.5c20-77.9,207.2-121.8,275.6-158.6c68.4-36.8,53.8-96.9-29.4-72.5
					c-83.2,24.3-213.9,227.5-321.9,234.3s116.3-61,146.6-140.3c30.3-79.3-84.3-66.2-118.4,20.6s-32.9,96.8-68.9,114.5
					c-36,17.7,10.7-20.1-14.1-44.6c-24.8-24.5-121.8-8.7-83.2,50.3C34.4,582.1,209.5,519.5,209.5,519.5z"/>
			</g>
		</g>
	</g>
	<g class="st16">
		<g class="st17">
			<text transform="matrix(1 0 0 1 108.1146 148.5904)" class="st18 st19 st20">abstract</text>
		</g>
		<g class="st17">
			<text transform="matrix(1 0 0 1 138.2493 162.7456)" class="st18 st21 st22 st23">background</text>
		</g>
	</g>
</g>
</svg>
