<svg height="480pt" viewBox="0 0 480 480" width="480pt" xmlns="http://www.w3.org/2000/svg"><path d="m472 432c0-22.089844-103.871094-40-232-40s-232 17.910156-232 40 103.871094 40 232 40 232-17.910156 232-40zm0 0" fill="#ffe477"/><path d="m472 432c0 22.113281-103.839844 40-232 40-4 0-8 0-11.921875-.054688 122.5625-1.089843 219.921875-18.511718 219.921875-39.945312s-97.359375-38.855469-219.921875-39.945312c3.921875-.054688 7.921875-.054688 11.921875-.054688 128.160156 0 232 17.886719 232 40zm0 0" fill="#ffcd00"/><path d="m168 192v48c-.027344 8.824219-7.175781 15.972656-16 16h-96c-8.824219-.027344-15.972656-7.175781-16-16v-96c.027344-8.824219 7.175781-15.972656 16-16h64c20.335938-.023438 38.464844 12.8125 45.199219 32zm0 0" fill="#00d7df"/><path d="m312 192v48c.027344 8.824219 7.175781 15.972656 16 16h96c8.824219-.027344 15.972656-7.175781 16-16v-96c-.027344-8.824219-7.175781-15.972656-16-16h-64c-20.335938-.023438-38.464844 12.8125-45.199219 32zm0 0" fill="#9bc9ff"/><path d="m168 192v48c-.027344 8.824219-7.175781 15.972656-16 16h-16c8.824219-.027344 15.972656-7.175781 16-16v-48l-2.800781-32c-6.734375-19.1875-24.863281-32.023438-45.199219-32h16c20.335938-.023438 38.464844 12.8125 45.199219 32zm0 0" fill="#00b6bd"/><path d="m440 144v96c-.027344 8.824219-7.175781 15.972656-16 16h-16c8.824219-.027344 15.972656-7.175781 16-16v-96c-.027344-8.824219-7.175781-15.972656-16-16h16c8.824219.027344 15.972656 7.175781 16 16zm0 0" fill="#57a4ff"/><path d="m440 8v16c-.027344 8.824219-7.175781 15.972656-16 16h-80v-16c.027344-8.824219 7.175781-15.972656 16-16zm0 0" fill="#a78966"/><g fill="#ffdaaa"><path d="m424 40v48c-.027344 8.824219-7.175781 15.972656-16 16h-40c-8.824219-.027344-15.972656-7.175781-16-16v-48zm0 0"/><path d="m408 160v32h-160v-16c.027344-8.824219 7.175781-15.972656 16-16zm0 0"/><path d="m232 176v16h-160v-32h144c8.824219.027344 15.972656 7.175781 16 16zm0 0"/></g><path d="m392 160h16v32h-16zm0 0" fill="#ffc477"/><path d="m232 176v16h-16v-16c-.027344-8.824219-7.175781-15.972656-16-16h16c8.824219.027344 15.972656 7.175781 16 16zm0 0" fill="#ffc477"/><path d="m136 24v16h-80c-8.824219-.027344-15.972656-7.175781-16-16v-16h80c8.824219.027344 15.972656 7.175781 16 16zm0 0" fill="#a78966"/><path d="m440 8v16c-.027344 8.824219-7.175781 15.972656-16 16h-16c8.824219-.027344 15.972656-7.175781 16-16v-16zm0 0" fill="#957856"/><path d="m136 24v16h-16v-16c-.027344-8.824219-7.175781-15.972656-16-16h16c8.824219.027344 15.972656 7.175781 16 16zm0 0" fill="#957856"/><path d="m128 40v48c-.027344 8.824219-7.175781 15.972656-16 16h-40c-8.824219-.027344-15.972656-7.175781-16-16v-48zm0 0" fill="#ffdaaa"/><path d="m424 40v48c-.027344 8.824219-7.175781 15.972656-16 16h-16c8.824219-.027344 15.972656-7.175781 16-16v-48zm0 0" fill="#ffc477"/><path d="m128 40v48c-.027344 8.824219-7.175781 15.972656-16 16h-16c8.824219-.027344 15.972656-7.175781 16-16v-48zm0 0" fill="#ffc477"/><path d="m336 256v160c.027344 8.824219 7.175781 15.972656 16 16h64v-176zm0 0" fill="#c6c5ca"/><path d="m64 256v176h64c8.824219-.027344 15.972656-7.175781 16-16v-160zm0 0" fill="#c6c5ca"/><path d="m400 256h16v176h-16zm0 0" fill="#acabb1"/><path d="m144 256v160c-.027344 8.824219-7.175781 15.972656-16 16h-16c8.824219-.027344 15.972656-7.175781 16-16v-160zm0 0" fill="#acabb1"/><path d="m48 46.527344v41.472656c0 13.253906 10.746094 24 24 24h40c13.253906 0 24-10.746094 24-24v-40c4.417969 0 8-3.582031 8-8v-16c0-13.253906-10.746094-24-24-24h-80c-4.417969 0-8 3.582031-8 8v16c.042969 10.132812 6.445312 19.148438 16 22.527344zm72 41.472656c0 4.417969-3.582031 8-8 8h-40c-4.417969 0-8-3.582031-8-8v-40h56zm-72-72h72c4.417969 0 8 3.582031 8 8v8h-72c-4.417969 0-8-3.582031-8-8zm0 0"/><path d="m232 88h16v32h-16zm0 0"/><path d="m258.34375 130.339844 32-32 11.316406 11.3125-32.003906 32zm0 0"/><path d="m178.34375 109.660156 11.3125-11.316406 32 32.003906-11.3125 11.3125zm0 0"/><path d="m232 232h16v32h-16zm0 0"/><path d="m258.347656 221.664062 11.3125-11.316406 32.003906 32-11.316406 11.316406zm0 0"/><path d="m178.347656 242.34375 32-32 11.3125 11.3125-32 32zm0 0"/><path d="m344 48v40c0 13.253906 10.746094 24 24 24h40c13.253906 0 24-10.746094 24-24v-41.472656c9.554688-3.378906 15.957031-12.394532 16-22.527344v-16c0-4.417969-3.582031-8-8-8h-80c-13.253906 0-24 10.746094-24 24v16c0 4.417969 3.582031 8 8 8zm72 40c0 4.417969-3.582031 8-8 8h-40c-4.417969 0-8-3.582031-8-8v-40h56zm-64-64c0-4.417969 3.582031-8 8-8h72v8c0 4.417969-3.582031 8-8 8h-72zm0 0"/><path d="m424 399.464844v-135.464844c13.253906 0 24-10.746094 24-24v-96c0-13.253906-10.746094-24-24-24h-64c-21.574219.019531-41.203125 12.484375-50.398438 32h-45.601562c-13.253906 0-24 10.746094-24 24 0-13.253906-10.746094-24-24-24h-45.601562c-9.195313-19.515625-28.824219-31.980469-50.398438-32h-64c-13.253906 0-24 10.746094-24 24v96c0 13.253906 10.746094 24 24 24v135.464844c-49.910156 10.933594-56 23.734375-56 32.535156 0 47.457031 230.199219 48 240 48s240-.542969 240-48c0-8.800781-6.089844-21.601562-56-32.535156zm-80-135.464844h24v160h-16c-4.417969 0-8-3.582031-8-8zm40 0h24v160h-24zm-24-128h64c4.417969 0 8 3.582031 8 8v96c0 4.417969-3.582031 8-8 8h-96c-4.417969 0-8-3.582031-8-8v-40h88c4.417969 0 8-3.582031 8-8v-32c0-4.417969-3.582031-8-8-8h-80c7.546875-10.082031 19.40625-16.011719 32-16zm-104 40c0-4.417969 3.582031-8 8-8h136v16h-144zm-16 16c0 4.417969 3.582031 8 8 8h56v40c0 13.253906 10.746094 24 24 24v123.03125c-27.894531-1.976562-57.390625-3.03125-88-3.03125s-60.105469 1.054688-88 3.03125v-123.03125c13.253906 0 24-10.746094 24-24v-40h56c4.417969 0 8-3.582031 8-8zm-104 72v152c0 4.417969-3.582031 8-8 8h-16v-160zm88-88v8h-144v-16h136c4.417969 0 8 3.582031 8 8zm-176 64v-96c0-4.417969 3.582031-8 8-8h64c12.59375-.011719 24.453125 5.917969 32 16h-80c-4.417969 0-8 3.582031-8 8v32c0 4.417969 3.582031 8 8 8h88v40c0 4.417969-3.582031 8-8 8h-96c-4.417969 0-8-3.582031-8-8zm48 24v160h-24v-160zm144 200c-142.398438 0-220.367188-20.648438-224-31.792969 0-.078125 3.625-7.941406 40-16.359375v16.152344c0 4.417969 3.582031 8 8 8h64c13.253906 0 24-10.746094 24-24v-12.929688c27.839844-2.007812 57.351562-3.070312 88-3.070312s60.160156 1.0625 88 3.070312v12.929688c0 13.253906 10.746094 24 24 24h64c4.417969 0 8-3.582031 8-8v-16.152344c35.734375 8.257813 39.855469 15.960938 40 15.960938-3.65625 11.550781-81.601562 32.191406-224 32.191406zm0 0"/></svg>