<svg id="Layer_5" enable-background="new 0 0 64 64" height="512" viewBox="0 0 64 64" width="512" xmlns="http://www.w3.org/2000/svg" xmlns:xlink="http://www.w3.org/1999/xlink"><linearGradient id="SVGID_1_" gradientUnits="userSpaceOnUse" x1="32" x2="32" y1="62.477" y2="1.031"><stop offset="0" stop-color="#9f2fff"/><stop offset="1" stop-color="#0bb1d3"/></linearGradient><path d="m31 25h-3v-3h2v1h3c.551 0 1-.449 1-1s-.449-1-1-1h-2c-1.654 0-3-1.346-3-3s1.346-3 3-3v-2h2v2h3v3h-2v-1h-3c-.551 0-1 .449-1 1s.449 1 1 1h2c1.654 0 3 1.346 3 3s-1.346 3-3 3v2h-2zm3.414-23.05 28.586 26.615v2.435h-2v28h-29-13v3.477l-6-2.399-6 2.399v-3.477h-4v-28h-2v-2.435l28.586-26.615c1.316-1.225 3.512-1.225 4.828 0zm-15.414 51.05h31.083c.422-2.509 2.408-4.494 4.917-4.917v-8.166c-2.509-.423-4.494-2.408-4.917-4.917h-31.109c2.438 1.825 4.026 4.727 4.026 8 0 3.261-1.577 6.154-4 7.981zm-6-18c-4.411 0-8 3.589-8 8s3.589 8 8 8 8-3.589 8-8-3.589-8-8-8zm-6 22v-6.019c-.758-.571-1.431-1.246-2-2.006v8.025zm10 2.523v-7.364c-1.226.538-2.578.841-4 .841s-2.774-.303-4-.841v7.364l4-1.601zm42-28.523h-54v6.026c1.825-2.438 4.727-4.026 8-4.026h39v1c0 2.206 1.794 4 4 4h1v12h-1c-2.206 0-4 1.794-4 4v1h-33v2h13 27zm-34.201-16.395c-1.176 1.566-1.799 3.429-1.799 5.395 0 4.962 4.038 9 9 9s9-4.038 9-9c0-1.966-.623-3.829-1.799-5.395l-2.329-2.168c-2.905-1.873-6.838-1.873-9.743-.001zm8.516-5.48-1.315-1.225-1.315 1.224c.874-.1 1.756-.101 2.63.001zm9.685 10.875c0 3.72-1.861 7.008-4.695 9h16.357l-11.856-11.039c.124.666.194 1.346.194 2.039zm-22 0c0-.693.07-1.373.194-2.039l-11.856 11.039h16.357c-2.834-1.992-4.695-5.28-4.695-9zm39.532 9-27.482-25.586c-.572-.533-1.528-.533-2.101 0l-27.481 25.586h2.934l25.598-23.832 25.598 23.832zm-53.532 14c0-3.309 2.691-6 6-6s6 2.691 6 6-2.691 6-6 6-6-2.691-6-6zm2 0c0 2.206 1.794 4 4 4s4-1.794 4-4-1.794-4-4-4-4 1.794-4 4zm18-6h-2v2h2zm2 2h18v-2h-18zm-4 4h22v-2h-22zm16 2h6v6h-6zm2 4h2v-2h-2zm-10-4h6v6h-6zm2 4h2v-2h-2zm-10-4h6v6h-6zm2 4h2v-2h-2z" fill="url(#SVGID_1_)"/></svg>