<svg height="512" viewBox="0 0 64 64" width="512" xmlns="http://www.w3.org/2000/svg" xmlns:xlink="http://www.w3.org/1999/xlink"><linearGradient id="gradient_ice" gradientUnits="userSpaceOnUse" x1="-12.04" x2="50.338" y1="50.407" y2="-10.329"><stop offset="0" stop-color="#fff200"/><stop offset="1" stop-color="#cd118c"/></linearGradient><linearGradient id="gradient_ice-2" x1="-8.633" x2="53.745" xlink:href="#gradient_ice" y1="53.906" y2="-6.83"/><linearGradient id="gradient_ice-3" x1="-5.227" x2="57.151" xlink:href="#gradient_ice" y1="57.405" y2="-3.331"/><linearGradient id="gradient_ice-4" x1=".667" x2="63.045" xlink:href="#gradient_ice" y1="63.458" y2="2.721"/><linearGradient id="gradient_ice-5" x1="-11.29" x2="51.088" xlink:href="#gradient_ice" y1="51.177" y2="-9.559"/><linearGradient id="gradient_ice-6" x1="-11.672" x2="50.706" xlink:href="#gradient_ice" y1="50.786" y2="-9.951"/><linearGradient id="gradient_ice-7" x1="-2.912" x2="59.466" xlink:href="#gradient_ice" y1="59.782" y2="-.954"/><linearGradient id="gradient_ice-8" x1="-.413" x2="61.965" xlink:href="#gradient_ice" y1="62.349" y2="1.613"/><linearGradient id="gradient_ice-9" x1="2.087" x2="64.464" xlink:href="#gradient_ice" y1="64.916" y2="4.179"/><linearGradient id="gradient_ice-10" x1="4.586" x2="66.964" xlink:href="#gradient_ice" y1="67.482" y2="6.746"/><g id="Coffee_cup-hot_coffee-news_paper-Restaurant-Coffee_break-coffee_time" data-name="Coffee cup-hot coffee-news paper-Restaurant-Coffee break-coffee time"><path d="m11.36 26.232c-1.23 1.024-2.76 2.3-2.76 4.768h2c0-1.532.9-2.282 2.04-3.232 1.23-1.024 2.76-2.3 2.76-4.768h-2c0 1.532-.9 2.282-2.04 3.232z" fill="url(#gradient_ice)"/><path d="m18.36 26.232c-1.23 1.024-2.76 2.3-2.76 4.768h2c0-1.532.9-2.282 2.04-3.232 1.23-1.024 2.76-2.3 2.76-4.768h-2c0 1.532-.9 2.282-2.04 3.232z" fill="url(#gradient_ice-2)"/><path d="m25.36 26.232c-1.23 1.024-2.76 2.3-2.76 4.768h2c0-1.532.9-2.282 2.04-3.232 1.23-1.024 2.76-2.3 2.76-4.768h-2c0 1.532-.9 2.282-2.04 3.232z" fill="url(#gradient_ice-3)"/><path d="m61 17h-4v-6a1 1 0 0 0 -1-1h-4v-7a1 1 0 0 0 -1-1h-40a1 1 0 0 0 -1 1v21h2v-20h38v49a5.979 5.979 0 0 0 1.54 4h-19.54v-1a1 1 0 0 0 -1-1h-5.7a10.983 10.983 0 0 0 4.65-8h3.05a3.009 3.009 0 0 0 3-3v-5a3.009 3.009 0 0 0 -3-3h-3v-2a1 1 0 0 0 -1-1h-24a1 1 0 0 0 -1 1v12a10.976 10.976 0 0 0 4.7 9h-5.7a1 1 0 0 0 -1 1v3a3.009 3.009 0 0 0 3 3h24a3.009 3.009 0 0 0 3-3h24a6 6 0 0 0 6-6v-35a1 1 0 0 0 -1-1zm-31 21h3a1 1 0 0 1 1 1v5a1 1 0 0 1 -1 1h-3zm-24 8v-6h3v-2h-3v-3h22v3h-15v2h15v6a9.014 9.014 0 0 1 -9 9h-4a9.014 9.014 0 0 1 -9-9zm24 13a1 1 0 0 1 -1 1h-24a1 1 0 0 1 -1-1v-2h26zm30-6a4 4 0 0 1 -8 0v-41h3v40h2v-33h3z" fill="url(#gradient_ice-4)"/><path d="m47 7a1 1 0 0 0 -1-1h-30a1 1 0 0 0 -1 1v6a1 1 0 0 0 1 1h30a1 1 0 0 0 1-1zm-2 5h-28v-4h28z" fill="url(#gradient_ice-5)"/><path d="m15 17h14v2h-14z" fill="url(#gradient_ice-6)"/><path d="m33 17h14v2h-14z" fill="url(#gradient_ice-7)"/><path d="m33 22h14v2h-14z" fill="url(#gradient_ice-8)"/><path d="m33 27h14v2h-14z" fill="url(#gradient_ice-9)"/><path d="m33 32h14v2h-14z" fill="url(#gradient_ice-10)"/></g></svg>