<?xml version="1.0"?>
<svg xmlns="http://www.w3.org/2000/svg" viewBox="0 0 64 64" width="512" height="512"><path d="m54.563 2h-45.126l-6.437 54h58z" fill="#85e8f9"/><path d="m49 12v-4a1 1 0 0 0 -1-1h-2a1 1 0 0 0 -1 1v4a1 1 0 0 1 -1 1 1 1 0 0 0 -1 1v10a1 1 0 0 0 1 1h6a1 1 0 0 0 1-1v-10a1 1 0 0 0 -1-1 1 1 0 0 1 -1-1z" fill="#5160ed"/><path d="m6.218 29-3.218 27h58l-3.218-27z" fill="#40dced"/><path d="m61.251 56h-58.502l-.749 6h60z" fill="#627077"/><path d="m22 35h14v16h-14z" fill="#1493b0"/><path d="m26 40h6v6h-6z" fill="#ed4720"/><path d="m40 33h8.52584a5.47416 5.47416 0 0 1 5.47416 5.47416v12.52584a0 0 0 0 1 0 0h-14a0 0 0 0 1 0 0v-18a0 0 0 0 1 0 0z" fill="#5160ed"/><path d="m44 40h6v6h-6z" fill="#ed4720"/><path d="m43 17h8v4h-8z" fill="#ed4720"/><path d="m10 39h8v12h-8z" fill="#4c7bfc"/><path d="m10 43h8v4h-8z" fill="#ed4720"/><g fill="#5160ed"><path d="m10 20h8v5h-8z"/><path d="m20 20h8v5h-8z"/><path d="m30 20h8v5h-8z"/></g><path d="m15 13h8v5h-8z" fill="#4493f2"/><path d="m25 13h8v5h-8z" fill="#4493f2"/><path d="m20 6h8v5h-8z" fill="#4493f2"/></svg>
