<svg height="512pt" viewBox="0 -12 512 512" width="512pt" xmlns="http://www.w3.org/2000/svg"><path d="m508 284.390625c.414062 0 .839844-.0625 1.257812-.199219 2.101563-.6875 3.230469-2.953125 2.535157-5.046875l-68.023438-204.96875c-.691406-2.085937-2.945312-3.230469-5.058593-2.535156-2.101563.703125-3.230469 2.96875-2.535157 5.0625l68.023438 204.960937c.5625 1.664063 2.121093 2.726563 3.800781 2.726563zm0 0" fill="#656d78"/><path d="m364 284.390625c1.679688 0 3.238281-1.0625 3.800781-2.734375l68.023438-204.960938c.695312-2.09375-.441407-4.359374-2.535157-5.0625-2.097656-.695312-4.359374.457032-5.058593 2.535157l-68.023438 204.96875c-.695312 2.09375.441407 4.359375 2.535157 5.046875.417968.144531.84375.207031 1.257812.207031zm0 0" fill="#656d78"/><path d="m364 275.984375h144c2.207031 0 4 1.800781 4 4 0 41.902344-34.097656 76-76 76s-76-34.097656-76-76c0-2.199219 1.792969-4 4-4zm0 0" fill="#ffce54"/><path d="m4 284.390625c-.414062 0-.839844-.0625-1.257812-.199219-2.101563-.6875-3.230469-2.953125-2.535157-5.046875l68.023438-204.96875c.691406-2.085937 2.945312-3.230469 5.058593-2.535156 2.101563.703125 3.230469 2.96875 2.535157 5.0625l-68.023438 204.960937c-.5625 1.664063-2.121093 2.726563-3.800781 2.726563zm0 0" fill="#656d78"/><path d="m148 284.390625c-1.679688 0-3.238281-1.0625-3.800781-2.734375l-68.023438-204.960938c-.695312-2.09375.441407-4.359374 2.535157-5.0625 2.097656-.695312 4.359374.457032 5.058593 2.535157l68.023438 204.96875c.695312 2.09375-.441407 4.359375-2.535157 5.046875-.417968.144531-.84375.207031-1.257812.207031zm0 0" fill="#656d78"/><path d="m148 275.984375h-144c-2.207031 0-4 1.800781-4 4 0 41.902344 34.097656 76 76 76s76-34.097656 76-76c0-2.199219-1.792969-4-4-4zm0 0" fill="#ffce54"/><path d="m180.007812 484c0 2.199219-1.800781 4-4 4h-24c-2.199218 0-4-1.800781-4-4v-16.015625c0-2.199219 1.800782-4 4-4h24c2.199219 0 4 1.800781 4 4zm0 0" fill="#545c66"/><path d="m363.992188 484c0 2.199219-1.800782 4-4 4h-24c-2.199219 0-4-1.800781-4-4v-16.015625c0-2.199219 1.800781-4 4-4h24c2.199218 0 4 1.800781 4 4zm0 0" fill="#545c66"/><path d="m256.078125 0c-28 0-35.167969 6.464844-35.167969 6.464844l3.402344 10.503906c1.128906-.640625 2.328125-.96875 3.6875-.96875s2.558594.320312 3.679688.960938c0 0 .082031.078124.242187.167968.078125.078125.230469.160156.390625.3125.488281.238282.96875.636719 1.28125 1.046875.246094.230469.484375.550781.804688.800781.082031 0 .167968.078126.242187.230469 5.589844 5.128907 13.320313 18.167969 13.398437 36.488281v8.40625h15.847657v-8.414062h.082031c0-18.320312 8.03125-31.359375 13.625-36.488281.085938-.160157.167969-.230469.246094-.230469.3125-.242188.550781-.5625.800781-.800781.3125-.410157.800781-.808594 1.28125-1.046875.15625-.160156.308594-.234375.390625-.3125.167969-.082032.246094-.152344.246094-.152344 1.121094-.640625 2.3125-.960938 3.671875-.960938 1.28125 0 2.488281.320313 3.609375.871094l2.960937-10.910156c.007813 0-6.722656-5.96875-34.722656-5.96875zm0 0" fill="#f6bb42"/><path d="m276 124v8h-40v-8c4.398438 0 8-3.601562 8-8v-36h24v36c0 4.390625 3.601562 8 8 8zm0 0" fill="#f6bb42"/><path d="m460.023438 60c0-2.199219-1.800782-4-4-4h-400.046876c-2.199218 0-4 1.800781-4 4l.007813 16c0 2.199219 1.800781 4 4 4h400.03125c2.199219 0 4-1.800781 4-4zm0 0" fill="#f6bb42"/><path d="m276 68c0 11.046875-8.953125 20-20 20s-20-8.953125-20-20 8.953125-20 20-20 20 8.953125 20 20zm0 0" fill="#ffce54"/><path d="m228 128h56c-8.871094 0-16 7.128906-16 16l8 232h-40l8-232c0-8.878906-7.128906-16-16-16zm0 0" fill="#f6bb42"/><path d="m372 399.984375c4.398438 0 8 3.609375 8 8v56.015625c0 4.390625-3.601562 8-8 8h-232c-4.398438 0-8-3.609375-8-8v-56.015625c0-4.390625 3.601562-8 8-8zm0 0" fill="#656d78"/><path d="m256.238281 72c-2.207031 0-4.039062-1.792969-4.039062-4s1.753906-4 3.953125-4h.085937c2.203125 0 4 1.792969 4 4s-1.789062 4-4 4zm0 0" fill="#f6bb42"/><path d="m236 376h40v24h-40zm0 0" fill="#f6bb42"/><g fill="#ffce54"><path d="m82.640625 43.511719c.871094 1.28125 1.359375 2.816406 1.359375 4.488281 0 4.40625-3.601562 8-8 8-4.40625 0-8-3.59375-8-8 0-3.03125 1.761719-5.769531 4.3125-7.03125 1.128906-.640625 2.328125-.96875 3.6875-.96875s2.558594.328125 3.679688.96875c0 0 .082031.078125.242187.160156.078125.070313.238281.152344.390625.304688.328125.246094.726562.636718 1.28125 1.046875.246094.230469.484375.558593.804688.800781.082031 0 .160156.070312.242187.230469zm0 0"/><path d="m429.359375 43.511719c-.871094 1.28125-1.359375 2.816406-1.359375 4.488281 0 4.40625 3.601562 8 8 8 4.40625 0 8-3.59375 8-8 0-3.03125-1.761719-5.769531-4.3125-7.03125-1.128906-.640625-2.328125-.96875-3.6875-.96875s-2.558594.328125-3.679688.96875c0 0-.082031.078125-.242187.160156-.078125.070313-.238281.152344-.390625.304688-.328125.246094-.726562.636718-1.28125 1.046875-.246094.230469-.484375.558593-.804688.800781-.082031 0-.160156.070312-.242187.230469zm0 0"/><path d="m284 132h-56c-2.207031 0-4-1.792969-4-4s1.792969-4 4-4h56c2.207031 0 4 1.792969 4 4s-1.792969 4-4 4zm0 0"/><path d="m280 380h-48c-2.207031 0-3.992188-1.800781-3.992188-4 0-2.214844 1.792969-4 4-4h47.992188c2.207031 0 4 1.785156 4 4 0 2.199219-1.792969 4-4 4zm0 0"/><path d="m296.230469 16c0 6.628906-5.371094 12-12 12-6.625 0-12-5.371094-12-12s5.375-12 12-12c6.628906 0 12 5.371094 12 12zm0 0"/><path d="m240.175781 16c0 6.628906-5.371093 12-12 12-6.628906 0-12-5.371094-12-12s5.371094-12 12-12c6.628907 0 12 5.371094 12 12zm0 0"/></g></svg>