<svg id="Capa_1" enable-background="new 0 0 512 512" height="512" viewBox="0 0 512 512" width="512" xmlns="http://www.w3.org/2000/svg" xmlns:xlink="http://www.w3.org/1999/xlink"><linearGradient id="SVGID_1_" gradientUnits="userSpaceOnUse" x1="256" x2="256" y1="512" y2="0"><stop offset="0" stop-color="#00b59c"/><stop offset="1" stop-color="#9cffac"/></linearGradient><g><g><path d="m392.174 89.564-5.238 31.518c-.932 5.605 1.384 11.255 5.98 14.594 4.595 3.339 10.685 3.796 15.728 1.178l28.356-14.721 28.356 14.721c5.083 2.638 11.168 2.135 15.728-1.178 4.597-3.34 6.912-8.99 5.98-14.594l-5.238-31.517 22.763-22.419c4.048-3.987 5.496-9.918 3.74-15.322s-6.413-9.351-12.031-10.198l-31.594-4.758-14.288-28.576c-2.54-5.082-7.734-8.292-13.416-8.292s-10.876 3.21-13.416 8.292l-14.288 28.576-31.593 4.758c-5.618.846-10.275 4.794-12.031 10.198-1.756 5.403-.308 11.335 3.74 15.322zm29.29-24.19c4.827-.727 8.999-3.758 11.182-8.125l4.354-8.708 4.354 8.708c2.183 4.366 6.354 7.397 11.182 8.125l9.628 1.45-6.937 6.832c-3.479 3.426-5.072 8.33-4.271 13.146l1.596 9.604-8.641-4.486c-4.332-2.249-9.49-2.249-13.822 0l-8.641 4.486 1.596-9.604c.801-4.816-.793-9.72-4.271-13.146l-6.936-6.832zm45.536 114.626h-60c-8.284 0-15 6.716-15 15v210c0 8.284 6.716 15 15 15h60c8.284 0 15-6.716 15-15v-210c0-8.284-6.716-15-15-15zm-15 210h-30v-180h30zm-329.826-150.436-5.238 31.518c-.932 5.605 1.384 11.255 5.98 14.594 4.594 3.339 10.685 3.796 15.728 1.178l28.356-14.72 28.356 14.721c5.083 2.638 11.167 2.135 15.728-1.178 4.597-3.34 6.912-8.99 5.98-14.594l-5.238-31.517 22.763-22.419c4.048-3.987 5.496-9.919 3.74-15.322s-6.413-9.351-12.031-10.198l-31.594-4.758-14.288-28.576c-2.54-5.083-7.734-8.293-13.416-8.293s-10.876 3.21-13.416 8.292l-14.288 28.576-31.593 4.758c-5.618.846-10.275 4.794-12.031 10.197s-.308 11.335 3.74 15.322zm29.29-24.19c4.827-.727 8.999-3.758 11.182-8.125l4.354-8.708 4.354 8.708c2.183 4.366 6.354 7.397 11.182 8.125l9.628 1.45-6.937 6.832c-3.479 3.426-5.072 8.33-4.271 13.146l1.596 9.604-8.641-4.486c-4.331-2.249-9.49-2.25-13.822 0l-8.641 4.486 1.596-9.604c.801-4.816-.793-9.72-4.271-13.146l-6.936-6.832zm45.536 114.626h-60c-8.284 0-15 6.716-15 15v60c0 8.284 6.716 15 15 15h60c8.284 0 15-6.716 15-15v-60c0-8.284-6.716-15-15-15zm-15 60h-30v-30h30zm75.174-240.436-5.238 31.518c-.932 5.605 1.384 11.255 5.98 14.594 4.595 3.339 10.685 3.796 15.728 1.178l28.356-14.721 28.356 14.721c5.083 2.638 11.167 2.135 15.728-1.178 4.597-3.34 6.912-8.99 5.98-14.594l-5.238-31.517 22.763-22.419c4.048-3.987 5.496-9.918 3.74-15.322s-6.413-9.351-12.031-10.198l-31.594-4.758-14.288-28.576c-2.54-5.082-7.734-8.292-13.416-8.292s-10.876 3.21-13.416 8.292l-14.288 28.576-31.593 4.758c-5.618.846-10.275 4.794-12.031 10.198-1.756 5.403-.308 11.335 3.74 15.322zm29.29-24.19c4.827-.727 8.999-3.758 11.182-8.125l4.354-8.708 4.354 8.708c2.183 4.366 6.354 7.397 11.182 8.125l9.628 1.45-6.937 6.832c-3.479 3.426-5.072 8.33-4.271 13.146l1.596 9.604-8.641-4.486c-4.332-2.249-9.49-2.249-13.822 0l-8.641 4.486 1.596-9.604c.801-4.816-.793-9.72-4.271-13.146l-6.936-6.832zm210.536 324.626h-435v-435c0-8.284-6.716-15-15-15h-32c-8.284 0-15 6.716-15 15s6.716 15 15 15h17v82.5h-17c-8.284 0-15 6.716-15 15s6.716 15 15 15h17v82.5h-17c-8.284 0-15 6.716-15 15s6.716 15 15 15h17v82.5h-17c-8.284 0-15 6.716-15 15s6.716 15 15 15h17v82.5h-17c-8.284 0-15 6.716-15 15s6.716 15 15 15h17v17c0 8.284 6.716 15 15 15s15-6.716 15-15v-17h82.5v17c0 8.284 6.716 15 15 15s15-6.716 15-15v-17h82.5v17c0 8.284 6.716 15 15 15s15-6.716 15-15v-17h82.5v17c0 8.284 6.716 15 15 15s15-6.716 15-15v-17h82.5v17c0 8.284 6.716 15 15 15s15-6.716 15-15v-32c0-8.284-6.716-15-15-15zm-165-210h-60c-8.284 0-15 6.716-15 15v150c0 8.284 6.716 15 15 15h60c8.284 0 15-6.716 15-15v-150c0-8.284-6.716-15-15-15zm-15 150h-30v-120h30z" fill="url(#SVGID_1_)"/></g></g></svg>