<?xml version="1.0" encoding="utf-8"?>
<!-- Generator: Adobe Illustrator 19.0.0, SVG Export Plug-In . SVG Version: 6.00 Build 0)  -->
<svg xmlns="http://www.w3.org/2000/svg" xmlns:xlink="http://www.w3.org/1999/xlink" version="1.1" id="Layer_1" x="0px" y="0px" viewBox="0 2 98 98" style="enable-background:new 0 2 98 98;" xml:space="preserve" width="512" height="512">
<style type="text/css">
	.st0{fill:url(#SVGID_1_);}
</style>
<linearGradient id="SVGID_1_" gradientUnits="userSpaceOnUse" x1="49" y1="101.3" x2="49" y2="4.7" gradientTransform="matrix(1 0 0 -1 0 104)">
	<stop offset="0" style="stop-color:#00EFD1"/>
	<stop offset="1" style="stop-color:#00ACEA"/>
</linearGradient>
<path class="st0" d="M72.6,55.8h-3.2L55.3,44.5c3.9-2.2,6.6-6.4,6.6-11.2c0-6.1-4.2-11.2-9.9-12.5v-3.3h6.8c1.7,0,3-1.3,3-3V5.7  c0-1.7-1.3-3-3-3H39.1c-1.7,0-3,1.3-3,3v8.8c0,1.7,1.3,3,3,3H46v5.9c0,1.7,1.3,3,3,3c3.9,0,6.9,3,6.9,6.9s-3,6.9-6.9,6.9  s-6.9-3-6.9-6.9c0-1.7-1.3-3-3-3s-3,1.3-3,3c0,4.8,2.7,9,6.6,11.2L28.6,55.8h-3.2c-1.7,0-3,1.3-3,3v37.5c0,1.7,1.3,3,3,3h47.2  c1.7,0,3-1.3,3-3V58.8C75.6,57.1,74.3,55.8,72.6,55.8z M42.1,8.7h13.7v2.8H42.1V8.7z M49,47.1l10.8,8.7H38.2L49,47.1z M44.6,61.8  h8.8v5h-8.8V61.8z M69.6,93.3H28.4V61.8h10.2v8c0,1.7,1.3,3,3,3h14.8c1.7,0,3-1.3,3-3v-8h10.2V93.3z"/>
</svg>
